<?xml version="1.0" encoding="utf-8" standalone="no"?>
<!DOCTYPE svg PUBLIC "-//W3C//DTD SVG 1.1//EN"
  "http://www.w3.org/Graphics/SVG/1.1/DTD/svg11.dtd">
<svg xmlns:xlink="http://www.w3.org/1999/xlink" width="460.8pt" height="345.6pt" viewBox="0 0 460.8 345.6" xmlns="http://www.w3.org/2000/svg" version="1.1">
 <metadata>
  <rdf:RDF xmlns:dc="http://purl.org/dc/elements/1.1/" xmlns:cc="http://creativecommons.org/ns#" xmlns:rdf="http://www.w3.org/1999/02/22-rdf-syntax-ns#">
   <cc:Work>
    <dc:type rdf:resource="http://purl.org/dc/dcmitype/StillImage"/>
    <dc:date>2024-08-12T14:54:14.509696</dc:date>
    <dc:format>image/svg+xml</dc:format>
    <dc:creator>
     <cc:Agent>
      <dc:title>Matplotlib v3.9.1.post1, https://matplotlib.org/</dc:title>
     </cc:Agent>
    </dc:creator>
   </cc:Work>
  </rdf:RDF>
 </metadata>
 <defs>
  <style type="text/css">*{stroke-linejoin: round; stroke-linecap: butt}</style>
 </defs>
 <g id="figure_1">
  <g id="patch_1">
   <path d="M 0 345.6 
L 460.8 345.6 
L 460.8 0 
L 0 0 
z
" style="fill: #ffffff"/>
  </g>
  <g id="axes_1">
   <g id="patch_2">
    <path d="M 57.6 307.584 
L 414.72 307.584 
L 414.72 41.472 
L 57.6 41.472 
z
" style="fill: #ffffff"/>
   </g>
   <g id="patch_3">
    <path d="M 191.6688 307.584 
L 212.8976 307.584 
L 212.8976 305.024 
L 191.6688 305.024 
z
" clip-path="url(#p129214d542)" style="fill: #008000; fill-opacity: 0.75; stroke: #000000; stroke-linejoin: miter"/>
   </g>
   <g id="patch_4">
    <path d="M 212.8976 307.584 
L 234.1264 307.584 
L 234.1264 307.584 
L 212.8976 307.584 
z
" clip-path="url(#p129214d542)" style="fill: #008000; fill-opacity: 0.75; stroke: #000000; stroke-linejoin: miter"/>
   </g>
   <g id="patch_5">
    <path d="M 234.1264 307.584 
L 255.3552 307.584 
L 255.3552 289.664 
L 234.1264 289.664 
z
" clip-path="url(#p129214d542)" style="fill: #008000; fill-opacity: 0.75; stroke: #000000; stroke-linejoin: miter"/>
   </g>
   <g id="patch_6">
    <path d="M 255.3552 307.584 
L 276.584 307.584 
L 276.584 281.984 
L 255.3552 281.984 
z
" clip-path="url(#p129214d542)" style="fill: #008000; fill-opacity: 0.75; stroke: #000000; stroke-linejoin: miter"/>
   </g>
   <g id="patch_7">
    <path d="M 276.584 307.584 
L 297.8128 307.584 
L 297.8128 256.384 
L 276.584 256.384 
z
" clip-path="url(#p129214d542)" style="fill: #008000; fill-opacity: 0.75; stroke: #000000; stroke-linejoin: miter"/>
   </g>
   <g id="patch_8">
    <path d="M 297.8128 307.584 
L 319.0416 307.584 
L 319.0416 251.264 
L 297.8128 251.264 
z
" clip-path="url(#p129214d542)" style="fill: #008000; fill-opacity: 0.75; stroke: #000000; stroke-linejoin: miter"/>
   </g>
   <g id="patch_9">
    <path d="M 319.0416 307.584 
L 340.2704 307.584 
L 340.2704 266.624 
L 319.0416 266.624 
z
" clip-path="url(#p129214d542)" style="fill: #008000; fill-opacity: 0.75; stroke: #000000; stroke-linejoin: miter"/>
   </g>
   <g id="patch_10">
    <path d="M 340.2704 307.584 
L 361.4992 307.584 
L 361.4992 269.184 
L 340.2704 269.184 
z
" clip-path="url(#p129214d542)" style="fill: #008000; fill-opacity: 0.75; stroke: #000000; stroke-linejoin: miter"/>
   </g>
   <g id="patch_11">
    <path d="M 361.4992 307.584 
L 382.728 307.584 
L 382.728 284.544 
L 361.4992 284.544 
z
" clip-path="url(#p129214d542)" style="fill: #008000; fill-opacity: 0.75; stroke: #000000; stroke-linejoin: miter"/>
   </g>
   <g id="patch_12">
    <path d="M 87.36 307.584 
L 91.96908 307.584 
L 91.96908 54.144 
L 87.36 54.144 
z
" clip-path="url(#p129214d542)" style="fill: #808080; fill-opacity: 0.75; stroke: #000000; stroke-width: 0.506608; stroke-linejoin: miter"/>
   </g>
   <g id="patch_13">
    <path d="M 91.96908 307.584 
L 96.57816 307.584 
L 96.57816 307.584 
L 91.96908 307.584 
z
" clip-path="url(#p129214d542)" style="fill: #808080; fill-opacity: 0.75; stroke: #000000; stroke-width: 0.506608; stroke-linejoin: miter"/>
   </g>
   <g id="patch_14">
    <path d="M 96.57816 307.584 
L 101.18724 307.584 
L 101.18724 307.584 
L 96.57816 307.584 
z
" clip-path="url(#p129214d542)" style="fill: #808080; fill-opacity: 0.75; stroke: #000000; stroke-width: 0.506608; stroke-linejoin: miter"/>
   </g>
   <g id="patch_15">
    <path d="M 101.18724 307.584 
L 105.79632 307.584 
L 105.79632 307.584 
L 101.18724 307.584 
z
" clip-path="url(#p129214d542)" style="fill: #808080; fill-opacity: 0.75; stroke: #000000; stroke-width: 0.506608; stroke-linejoin: miter"/>
   </g>
   <g id="patch_16">
    <path d="M 105.79632 307.584 
L 110.4054 307.584 
L 110.4054 307.584 
L 105.79632 307.584 
z
" clip-path="url(#p129214d542)" style="fill: #808080; fill-opacity: 0.75; stroke: #000000; stroke-width: 0.506608; stroke-linejoin: miter"/>
   </g>
   <g id="patch_17">
    <path d="M 110.4054 307.584 
L 115.01448 307.584 
L 115.01448 307.584 
L 110.4054 307.584 
z
" clip-path="url(#p129214d542)" style="fill: #808080; fill-opacity: 0.75; stroke: #000000; stroke-width: 0.506608; stroke-linejoin: miter"/>
   </g>
   <g id="patch_18">
    <path d="M 115.01448 307.584 
L 119.62356 307.584 
L 119.62356 307.584 
L 115.01448 307.584 
z
" clip-path="url(#p129214d542)" style="fill: #808080; fill-opacity: 0.75; stroke: #000000; stroke-width: 0.506608; stroke-linejoin: miter"/>
   </g>
   <g id="patch_19">
    <path d="M 119.62356 307.584 
L 124.23264 307.584 
L 124.23264 305.024 
L 119.62356 305.024 
z
" clip-path="url(#p129214d542)" style="fill: #808080; fill-opacity: 0.75; stroke: #000000; stroke-width: 0.506608; stroke-linejoin: miter"/>
   </g>
   <g id="patch_20">
    <path d="M 102.24 307.584 
L 107.561629 307.584 
L 107.561629 292.224 
L 102.24 292.224 
z
" clip-path="url(#p129214d542)" style="fill: #ff0000; fill-opacity: 0.75; stroke: #000000; stroke-width: 0.584928; stroke-linejoin: miter"/>
   </g>
   <g id="patch_21">
    <path d="M 107.561629 307.584 
L 112.883258 307.584 
L 112.883258 279.424 
L 107.561629 279.424 
z
" clip-path="url(#p129214d542)" style="fill: #ff0000; fill-opacity: 0.75; stroke: #000000; stroke-width: 0.584928; stroke-linejoin: miter"/>
   </g>
   <g id="patch_22">
    <path d="M 112.883258 307.584 
L 118.204887 307.584 
L 118.204887 271.744 
L 112.883258 271.744 
z
" clip-path="url(#p129214d542)" style="fill: #ff0000; fill-opacity: 0.75; stroke: #000000; stroke-width: 0.584928; stroke-linejoin: miter"/>
   </g>
   <g id="patch_23">
    <path d="M 118.204887 307.584 
L 123.526516 307.584 
L 123.526516 253.824 
L 118.204887 253.824 
z
" clip-path="url(#p129214d542)" style="fill: #ff0000; fill-opacity: 0.75; stroke: #000000; stroke-width: 0.584928; stroke-linejoin: miter"/>
   </g>
   <g id="patch_24">
    <path d="M 123.526516 307.584 
L 128.848145 307.584 
L 128.848145 256.384 
L 123.526516 256.384 
z
" clip-path="url(#p129214d542)" style="fill: #ff0000; fill-opacity: 0.75; stroke: #000000; stroke-width: 0.584928; stroke-linejoin: miter"/>
   </g>
   <g id="patch_25">
    <path d="M 128.848145 307.584 
L 134.169775 307.584 
L 134.169775 281.984 
L 128.848145 281.984 
z
" clip-path="url(#p129214d542)" style="fill: #ff0000; fill-opacity: 0.75; stroke: #000000; stroke-width: 0.584928; stroke-linejoin: miter"/>
   </g>
   <g id="patch_26">
    <path d="M 134.169775 307.584 
L 139.491404 307.584 
L 139.491404 289.664 
L 134.169775 289.664 
z
" clip-path="url(#p129214d542)" style="fill: #ff0000; fill-opacity: 0.75; stroke: #000000; stroke-width: 0.584928; stroke-linejoin: miter"/>
   </g>
   <g id="patch_27">
    <path d="M 139.491404 307.584 
L 144.813033 307.584 
L 144.813033 284.544 
L 139.491404 284.544 
z
" clip-path="url(#p129214d542)" style="fill: #ff0000; fill-opacity: 0.75; stroke: #000000; stroke-width: 0.584928; stroke-linejoin: miter"/>
   </g>
   <g id="patch_28">
    <path d="M 144.813033 307.584 
L 150.134662 307.584 
L 150.134662 307.584 
L 144.813033 307.584 
z
" clip-path="url(#p129214d542)" style="fill: #ff0000; fill-opacity: 0.75; stroke: #000000; stroke-width: 0.584928; stroke-linejoin: miter"/>
   </g>
   <g id="patch_29">
    <path d="M 150.134662 307.584 
L 155.456291 307.584 
L 155.456291 305.024 
L 150.134662 305.024 
z
" clip-path="url(#p129214d542)" style="fill: #ff0000; fill-opacity: 0.75; stroke: #000000; stroke-width: 0.584928; stroke-linejoin: miter"/>
   </g>
   <g id="patch_30">
    <path d="M 155.456291 307.584 
L 160.77792 307.584 
L 160.77792 305.024 
L 155.456291 305.024 
z
" clip-path="url(#p129214d542)" style="fill: #ff0000; fill-opacity: 0.75; stroke: #000000; stroke-width: 0.584928; stroke-linejoin: miter"/>
   </g>
   <g id="patch_31">
    <path d="M 162.08736 307.584 
L 175.94064 307.584 
L 175.94064 305.024 
L 162.08736 305.024 
z
" clip-path="url(#p129214d542)" style="fill: #ffa500; fill-opacity: 0.75; stroke: #000000; stroke-linejoin: miter"/>
   </g>
   <g id="patch_32">
    <path d="M 175.94064 307.584 
L 189.79392 307.584 
L 189.79392 302.464 
L 175.94064 302.464 
z
" clip-path="url(#p129214d542)" style="fill: #ffa500; fill-opacity: 0.75; stroke: #000000; stroke-linejoin: miter"/>
   </g>
   <g id="patch_33">
    <path d="M 189.79392 307.584 
L 203.6472 307.584 
L 203.6472 281.984 
L 189.79392 281.984 
z
" clip-path="url(#p129214d542)" style="fill: #ffa500; fill-opacity: 0.75; stroke: #000000; stroke-linejoin: miter"/>
   </g>
   <g id="patch_34">
    <path d="M 203.6472 307.584 
L 217.50048 307.584 
L 217.50048 271.744 
L 203.6472 271.744 
z
" clip-path="url(#p129214d542)" style="fill: #ffa500; fill-opacity: 0.75; stroke: #000000; stroke-linejoin: miter"/>
   </g>
   <g id="patch_35">
    <path d="M 217.50048 307.584 
L 231.35376 307.584 
L 231.35376 253.824 
L 217.50048 253.824 
z
" clip-path="url(#p129214d542)" style="fill: #ffa500; fill-opacity: 0.75; stroke: #000000; stroke-linejoin: miter"/>
   </g>
   <g id="patch_36">
    <path d="M 231.35376 307.584 
L 245.20704 307.584 
L 245.20704 256.384 
L 231.35376 256.384 
z
" clip-path="url(#p129214d542)" style="fill: #ffa500; fill-opacity: 0.75; stroke: #000000; stroke-linejoin: miter"/>
   </g>
   <g id="patch_37">
    <path d="M 245.20704 307.584 
L 259.06032 307.584 
L 259.06032 266.624 
L 245.20704 266.624 
z
" clip-path="url(#p129214d542)" style="fill: #ffa500; fill-opacity: 0.75; stroke: #000000; stroke-linejoin: miter"/>
   </g>
   <g id="patch_38">
    <path d="M 259.06032 307.584 
L 272.9136 307.584 
L 272.9136 281.984 
L 259.06032 281.984 
z
" clip-path="url(#p129214d542)" style="fill: #ffa500; fill-opacity: 0.75; stroke: #000000; stroke-linejoin: miter"/>
   </g>
   <g id="patch_39">
    <path d="M 272.9136 307.584 
L 286.76688 307.584 
L 286.76688 297.344 
L 272.9136 297.344 
z
" clip-path="url(#p129214d542)" style="fill: #ffa500; fill-opacity: 0.75; stroke: #000000; stroke-linejoin: miter"/>
   </g>
   <g id="patch_40">
    <path d="M 286.76688 307.584 
L 300.62016 307.584 
L 300.62016 302.464 
L 286.76688 302.464 
z
" clip-path="url(#p129214d542)" style="fill: #ffa500; fill-opacity: 0.75; stroke: #000000; stroke-linejoin: miter"/>
   </g>
   <g id="matplotlib.axis_1">
    <g id="xtick_1">
     <g id="line2d_1">
      <defs>
       <path id="maaedeec139" d="M 0 0 
L 0 3.5 
" style="stroke: #000000; stroke-width: 0.8"/>
      </defs>
      <g>
       <use xlink:href="#maaedeec139" x="87.36" y="307.584" style="stroke: #000000; stroke-width: 0.8"/>
      </g>
     </g>
     <g id="text_1">
      <!-- 0 -->
      <g transform="translate(84.17875 322.182437) scale(0.1 -0.1)">
       <defs>
        <path id="DejaVuSans-30" d="M 2034 4250 
Q 1547 4250 1301 3770 
Q 1056 3291 1056 2328 
Q 1056 1369 1301 889 
Q 1547 409 2034 409 
Q 2525 409 2770 889 
Q 3016 1369 3016 2328 
Q 3016 3291 2770 3770 
Q 2525 4250 2034 4250 
z
M 2034 4750 
Q 2819 4750 3233 4129 
Q 3647 3509 3647 2328 
Q 3647 1150 3233 529 
Q 2819 -91 2034 -91 
Q 1250 -91 836 529 
Q 422 1150 422 2328 
Q 422 3509 836 4129 
Q 1250 4750 2034 4750 
z
" transform="scale(0.015625)"/>
       </defs>
       <use xlink:href="#DejaVuSans-30"/>
      </g>
     </g>
    </g>
    <g id="xtick_2">
     <g id="line2d_2">
      <g>
       <use xlink:href="#maaedeec139" x="146.88" y="307.584" style="stroke: #000000; stroke-width: 0.8"/>
      </g>
     </g>
     <g id="text_2">
      <!-- 20 -->
      <g transform="translate(140.5175 322.182437) scale(0.1 -0.1)">
       <defs>
        <path id="DejaVuSans-32" d="M 1228 531 
L 3431 531 
L 3431 0 
L 469 0 
L 469 531 
Q 828 903 1448 1529 
Q 2069 2156 2228 2338 
Q 2531 2678 2651 2914 
Q 2772 3150 2772 3378 
Q 2772 3750 2511 3984 
Q 2250 4219 1831 4219 
Q 1534 4219 1204 4116 
Q 875 4013 500 3803 
L 500 4441 
Q 881 4594 1212 4672 
Q 1544 4750 1819 4750 
Q 2544 4750 2975 4387 
Q 3406 4025 3406 3419 
Q 3406 3131 3298 2873 
Q 3191 2616 2906 2266 
Q 2828 2175 2409 1742 
Q 1991 1309 1228 531 
z
" transform="scale(0.015625)"/>
       </defs>
       <use xlink:href="#DejaVuSans-32"/>
       <use xlink:href="#DejaVuSans-30" x="63.623047"/>
      </g>
     </g>
    </g>
    <g id="xtick_3">
     <g id="line2d_3">
      <g>
       <use xlink:href="#maaedeec139" x="206.4" y="307.584" style="stroke: #000000; stroke-width: 0.8"/>
      </g>
     </g>
     <g id="text_3">
      <!-- 40 -->
      <g transform="translate(200.0375 322.182437) scale(0.1 -0.1)">
       <defs>
        <path id="DejaVuSans-34" d="M 2419 4116 
L 825 1625 
L 2419 1625 
L 2419 4116 
z
M 2253 4666 
L 3047 4666 
L 3047 1625 
L 3713 1625 
L 3713 1100 
L 3047 1100 
L 3047 0 
L 2419 0 
L 2419 1100 
L 313 1100 
L 313 1709 
L 2253 4666 
z
" transform="scale(0.015625)"/>
       </defs>
       <use xlink:href="#DejaVuSans-34"/>
       <use xlink:href="#DejaVuSans-30" x="63.623047"/>
      </g>
     </g>
    </g>
    <g id="xtick_4">
     <g id="line2d_4">
      <g>
       <use xlink:href="#maaedeec139" x="265.92" y="307.584" style="stroke: #000000; stroke-width: 0.8"/>
      </g>
     </g>
     <g id="text_4">
      <!-- 60 -->
      <g transform="translate(259.5575 322.182437) scale(0.1 -0.1)">
       <defs>
        <path id="DejaVuSans-36" d="M 2113 2584 
Q 1688 2584 1439 2293 
Q 1191 2003 1191 1497 
Q 1191 994 1439 701 
Q 1688 409 2113 409 
Q 2538 409 2786 701 
Q 3034 994 3034 1497 
Q 3034 2003 2786 2293 
Q 2538 2584 2113 2584 
z
M 3366 4563 
L 3366 3988 
Q 3128 4100 2886 4159 
Q 2644 4219 2406 4219 
Q 1781 4219 1451 3797 
Q 1122 3375 1075 2522 
Q 1259 2794 1537 2939 
Q 1816 3084 2150 3084 
Q 2853 3084 3261 2657 
Q 3669 2231 3669 1497 
Q 3669 778 3244 343 
Q 2819 -91 2113 -91 
Q 1303 -91 875 529 
Q 447 1150 447 2328 
Q 447 3434 972 4092 
Q 1497 4750 2381 4750 
Q 2619 4750 2861 4703 
Q 3103 4656 3366 4563 
z
" transform="scale(0.015625)"/>
       </defs>
       <use xlink:href="#DejaVuSans-36"/>
       <use xlink:href="#DejaVuSans-30" x="63.623047"/>
      </g>
     </g>
    </g>
    <g id="xtick_5">
     <g id="line2d_5">
      <g>
       <use xlink:href="#maaedeec139" x="325.44" y="307.584" style="stroke: #000000; stroke-width: 0.8"/>
      </g>
     </g>
     <g id="text_5">
      <!-- 80 -->
      <g transform="translate(319.0775 322.182437) scale(0.1 -0.1)">
       <defs>
        <path id="DejaVuSans-38" d="M 2034 2216 
Q 1584 2216 1326 1975 
Q 1069 1734 1069 1313 
Q 1069 891 1326 650 
Q 1584 409 2034 409 
Q 2484 409 2743 651 
Q 3003 894 3003 1313 
Q 3003 1734 2745 1975 
Q 2488 2216 2034 2216 
z
M 1403 2484 
Q 997 2584 770 2862 
Q 544 3141 544 3541 
Q 544 4100 942 4425 
Q 1341 4750 2034 4750 
Q 2731 4750 3128 4425 
Q 3525 4100 3525 3541 
Q 3525 3141 3298 2862 
Q 3072 2584 2669 2484 
Q 3125 2378 3379 2068 
Q 3634 1759 3634 1313 
Q 3634 634 3220 271 
Q 2806 -91 2034 -91 
Q 1263 -91 848 271 
Q 434 634 434 1313 
Q 434 1759 690 2068 
Q 947 2378 1403 2484 
z
M 1172 3481 
Q 1172 3119 1398 2916 
Q 1625 2713 2034 2713 
Q 2441 2713 2670 2916 
Q 2900 3119 2900 3481 
Q 2900 3844 2670 4047 
Q 2441 4250 2034 4250 
Q 1625 4250 1398 4047 
Q 1172 3844 1172 3481 
z
" transform="scale(0.015625)"/>
       </defs>
       <use xlink:href="#DejaVuSans-38"/>
       <use xlink:href="#DejaVuSans-30" x="63.623047"/>
      </g>
     </g>
    </g>
    <g id="xtick_6">
     <g id="line2d_6">
      <g>
       <use xlink:href="#maaedeec139" x="384.96" y="307.584" style="stroke: #000000; stroke-width: 0.8"/>
      </g>
     </g>
     <g id="text_6">
      <!-- 100 -->
      <g transform="translate(375.41625 322.182437) scale(0.1 -0.1)">
       <defs>
        <path id="DejaVuSans-31" d="M 794 531 
L 1825 531 
L 1825 4091 
L 703 3866 
L 703 4441 
L 1819 4666 
L 2450 4666 
L 2450 531 
L 3481 531 
L 3481 0 
L 794 0 
L 794 531 
z
" transform="scale(0.015625)"/>
       </defs>
       <use xlink:href="#DejaVuSans-31"/>
       <use xlink:href="#DejaVuSans-30" x="63.623047"/>
       <use xlink:href="#DejaVuSans-30" x="127.246094"/>
      </g>
     </g>
    </g>
    <g id="text_7">
     <!-- P (EC) -->
     <g transform="translate(221.00375 335.860562) scale(0.1 -0.1)">
      <defs>
       <path id="DejaVuSans-50" d="M 1259 4147 
L 1259 2394 
L 2053 2394 
Q 2494 2394 2734 2622 
Q 2975 2850 2975 3272 
Q 2975 3691 2734 3919 
Q 2494 4147 2053 4147 
L 1259 4147 
z
M 628 4666 
L 2053 4666 
Q 2838 4666 3239 4311 
Q 3641 3956 3641 3272 
Q 3641 2581 3239 2228 
Q 2838 1875 2053 1875 
L 1259 1875 
L 1259 0 
L 628 0 
L 628 4666 
z
" transform="scale(0.015625)"/>
       <path id="DejaVuSans-20" transform="scale(0.015625)"/>
       <path id="DejaVuSans-28" d="M 1984 4856 
Q 1566 4138 1362 3434 
Q 1159 2731 1159 2009 
Q 1159 1288 1364 580 
Q 1569 -128 1984 -844 
L 1484 -844 
Q 1016 -109 783 600 
Q 550 1309 550 2009 
Q 550 2706 781 3412 
Q 1013 4119 1484 4856 
L 1984 4856 
z
" transform="scale(0.015625)"/>
       <path id="DejaVuSans-45" d="M 628 4666 
L 3578 4666 
L 3578 4134 
L 1259 4134 
L 1259 2753 
L 3481 2753 
L 3481 2222 
L 1259 2222 
L 1259 531 
L 3634 531 
L 3634 0 
L 628 0 
L 628 4666 
z
" transform="scale(0.015625)"/>
       <path id="DejaVuSans-43" d="M 4122 4306 
L 4122 3641 
Q 3803 3938 3442 4084 
Q 3081 4231 2675 4231 
Q 1875 4231 1450 3742 
Q 1025 3253 1025 2328 
Q 1025 1406 1450 917 
Q 1875 428 2675 428 
Q 3081 428 3442 575 
Q 3803 722 4122 1019 
L 4122 359 
Q 3791 134 3420 21 
Q 3050 -91 2638 -91 
Q 1578 -91 968 557 
Q 359 1206 359 2328 
Q 359 3453 968 4101 
Q 1578 4750 2638 4750 
Q 3056 4750 3426 4639 
Q 3797 4528 4122 4306 
z
" transform="scale(0.015625)"/>
       <path id="DejaVuSans-29" d="M 513 4856 
L 1013 4856 
Q 1481 4119 1714 3412 
Q 1947 2706 1947 2009 
Q 1947 1309 1714 600 
Q 1481 -109 1013 -844 
L 513 -844 
Q 928 -128 1133 580 
Q 1338 1288 1338 2009 
Q 1338 2731 1133 3434 
Q 928 4138 513 4856 
z
" transform="scale(0.015625)"/>
      </defs>
      <use xlink:href="#DejaVuSans-50"/>
      <use xlink:href="#DejaVuSans-20" x="60.302734"/>
      <use xlink:href="#DejaVuSans-28" x="92.089844"/>
      <use xlink:href="#DejaVuSans-45" x="131.103516"/>
      <use xlink:href="#DejaVuSans-43" x="194.287109"/>
      <use xlink:href="#DejaVuSans-29" x="264.111328"/>
     </g>
    </g>
   </g>
   <g id="matplotlib.axis_2">
    <g id="ytick_1">
     <g id="line2d_7">
      <defs>
       <path id="m4ae078dcc2" d="M 0 0 
L -3.5 0 
" style="stroke: #000000; stroke-width: 0.8"/>
      </defs>
      <g>
       <use xlink:href="#m4ae078dcc2" x="57.6" y="307.584" style="stroke: #000000; stroke-width: 0.8"/>
      </g>
     </g>
     <g id="text_8">
      <!-- 0 -->
      <g transform="translate(44.2375 311.383219) scale(0.1 -0.1)">
       <use xlink:href="#DejaVuSans-30"/>
      </g>
     </g>
    </g>
    <g id="ytick_2">
     <g id="line2d_8">
      <g>
       <use xlink:href="#m4ae078dcc2" x="57.6" y="256.384" style="stroke: #000000; stroke-width: 0.8"/>
      </g>
     </g>
     <g id="text_9">
      <!-- 20 -->
      <g transform="translate(37.875 260.183219) scale(0.1 -0.1)">
       <use xlink:href="#DejaVuSans-32"/>
       <use xlink:href="#DejaVuSans-30" x="63.623047"/>
      </g>
     </g>
    </g>
    <g id="ytick_3">
     <g id="line2d_9">
      <g>
       <use xlink:href="#m4ae078dcc2" x="57.6" y="205.184" style="stroke: #000000; stroke-width: 0.8"/>
      </g>
     </g>
     <g id="text_10">
      <!-- 40 -->
      <g transform="translate(37.875 208.983219) scale(0.1 -0.1)">
       <use xlink:href="#DejaVuSans-34"/>
       <use xlink:href="#DejaVuSans-30" x="63.623047"/>
      </g>
     </g>
    </g>
    <g id="ytick_4">
     <g id="line2d_10">
      <g>
       <use xlink:href="#m4ae078dcc2" x="57.6" y="153.984" style="stroke: #000000; stroke-width: 0.8"/>
      </g>
     </g>
     <g id="text_11">
      <!-- 60 -->
      <g transform="translate(37.875 157.783219) scale(0.1 -0.1)">
       <use xlink:href="#DejaVuSans-36"/>
       <use xlink:href="#DejaVuSans-30" x="63.623047"/>
      </g>
     </g>
    </g>
    <g id="ytick_5">
     <g id="line2d_11">
      <g>
       <use xlink:href="#m4ae078dcc2" x="57.6" y="102.784" style="stroke: #000000; stroke-width: 0.8"/>
      </g>
     </g>
     <g id="text_12">
      <!-- 80 -->
      <g transform="translate(37.875 106.583219) scale(0.1 -0.1)">
       <use xlink:href="#DejaVuSans-38"/>
       <use xlink:href="#DejaVuSans-30" x="63.623047"/>
      </g>
     </g>
    </g>
    <g id="ytick_6">
     <g id="line2d_12">
      <g>
       <use xlink:href="#m4ae078dcc2" x="57.6" y="51.584" style="stroke: #000000; stroke-width: 0.8"/>
      </g>
     </g>
     <g id="text_13">
      <!-- 100 -->
      <g transform="translate(31.5125 55.383219) scale(0.1 -0.1)">
       <use xlink:href="#DejaVuSans-31"/>
       <use xlink:href="#DejaVuSans-30" x="63.623047"/>
       <use xlink:href="#DejaVuSans-30" x="127.246094"/>
      </g>
     </g>
    </g>
    <g id="text_14">
     <!-- Count -->
     <g transform="translate(25.432812 189.376437) rotate(-90) scale(0.1 -0.1)">
      <defs>
       <path id="DejaVuSans-6f" d="M 1959 3097 
Q 1497 3097 1228 2736 
Q 959 2375 959 1747 
Q 959 1119 1226 758 
Q 1494 397 1959 397 
Q 2419 397 2687 759 
Q 2956 1122 2956 1747 
Q 2956 2369 2687 2733 
Q 2419 3097 1959 3097 
z
M 1959 3584 
Q 2709 3584 3137 3096 
Q 3566 2609 3566 1747 
Q 3566 888 3137 398 
Q 2709 -91 1959 -91 
Q 1206 -91 779 398 
Q 353 888 353 1747 
Q 353 2609 779 3096 
Q 1206 3584 1959 3584 
z
" transform="scale(0.015625)"/>
       <path id="DejaVuSans-75" d="M 544 1381 
L 544 3500 
L 1119 3500 
L 1119 1403 
Q 1119 906 1312 657 
Q 1506 409 1894 409 
Q 2359 409 2629 706 
Q 2900 1003 2900 1516 
L 2900 3500 
L 3475 3500 
L 3475 0 
L 2900 0 
L 2900 538 
Q 2691 219 2414 64 
Q 2138 -91 1772 -91 
Q 1169 -91 856 284 
Q 544 659 544 1381 
z
M 1991 3584 
L 1991 3584 
z
" transform="scale(0.015625)"/>
       <path id="DejaVuSans-6e" d="M 3513 2113 
L 3513 0 
L 2938 0 
L 2938 2094 
Q 2938 2591 2744 2837 
Q 2550 3084 2163 3084 
Q 1697 3084 1428 2787 
Q 1159 2491 1159 1978 
L 1159 0 
L 581 0 
L 581 3500 
L 1159 3500 
L 1159 2956 
Q 1366 3272 1645 3428 
Q 1925 3584 2291 3584 
Q 2894 3584 3203 3211 
Q 3513 2838 3513 2113 
z
" transform="scale(0.015625)"/>
       <path id="DejaVuSans-74" d="M 1172 4494 
L 1172 3500 
L 2356 3500 
L 2356 3053 
L 1172 3053 
L 1172 1153 
Q 1172 725 1289 603 
Q 1406 481 1766 481 
L 2356 481 
L 2356 0 
L 1766 0 
Q 1100 0 847 248 
Q 594 497 594 1153 
L 594 3053 
L 172 3053 
L 172 3500 
L 594 3500 
L 594 4494 
L 1172 4494 
z
" transform="scale(0.015625)"/>
      </defs>
      <use xlink:href="#DejaVuSans-43"/>
      <use xlink:href="#DejaVuSans-6f" x="69.824219"/>
      <use xlink:href="#DejaVuSans-75" x="131.005859"/>
      <use xlink:href="#DejaVuSans-6e" x="194.384766"/>
      <use xlink:href="#DejaVuSans-74" x="257.763672"/>
     </g>
    </g>
   </g>
   <g id="line2d_13">
    <path d="M 223.60128 307.584 
L 223.60128 41.472 
" clip-path="url(#p129214d542)" style="fill: none; stroke: #008000; stroke-width: 1.5; stroke-linecap: square"/>
   </g>
   <g id="line2d_14">
    <path d="M 87.9552 307.584 
L 87.9552 41.472 
" clip-path="url(#p129214d542)" style="fill: none; stroke: #000000; stroke-width: 1.5; stroke-linecap: square"/>
   </g>
   <g id="line2d_15">
    <path d="M 132.62496 307.584 
L 132.62496 41.472 
" clip-path="url(#p129214d542)" style="fill: none; stroke: #ff0000; stroke-width: 1.5; stroke-linecap: square"/>
   </g>
   <g id="line2d_16">
    <path d="M 152.2368 307.584 
L 152.2368 41.472 
" clip-path="url(#p129214d542)" style="fill: none; stroke: #ffa500; stroke-width: 1.5; stroke-linecap: square"/>
   </g>
   <g id="line2d_17">
    <path d="M 124.8576 307.584 
L 124.8576 41.472 
" clip-path="url(#p129214d542)" style="fill: none; stroke-dasharray: 5.55,2.4; stroke-dashoffset: 0; stroke: #000000; stroke-width: 1.5"/>
   </g>
   <g id="patch_41">
    <path d="M 57.6 307.584 
L 57.6 41.472 
" style="fill: none; stroke: #000000; stroke-width: 0.8; stroke-linejoin: miter; stroke-linecap: square"/>
   </g>
   <g id="patch_42">
    <path d="M 414.72 307.584 
L 414.72 41.472 
" style="fill: none; stroke: #000000; stroke-width: 0.8; stroke-linejoin: miter; stroke-linecap: square"/>
   </g>
   <g id="patch_43">
    <path d="M 57.6 307.584 
L 414.72 307.584 
" style="fill: none; stroke: #000000; stroke-width: 0.8; stroke-linejoin: miter; stroke-linecap: square"/>
   </g>
   <g id="patch_44">
    <path d="M 57.6 41.472 
L 414.72 41.472 
" style="fill: none; stroke: #000000; stroke-width: 0.8; stroke-linejoin: miter; stroke-linecap: square"/>
   </g>
  </g>
 </g>
 <defs>
  <clipPath id="p129214d542">
   <rect x="57.6" y="41.472" width="357.12" height="266.112"/>
  </clipPath>
 </defs>
</svg>
